<svg width="42" height="42" viewBox="0 0 42 42" fill="none" xmlns="http://www.w3.org/2000/svg">
<path d="M21 42C32.598 42 42 32.598 42 21C42 9.40202 32.598 0 21 0C9.40202 0 0 9.40202 0 21C0 32.598 9.40202 42 21 42Z" fill="white"/>
<path d="M20.9999 31.9589H21.3849L21.2609 26.84L21.6171 26.5339C23.2221 26.7249 24.6619 26.8979 26.2679 27.0929L25.859 25.6929C25.8287 25.5733 25.8325 25.4476 25.87 25.3301C25.9075 25.2125 25.977 25.1079 26.0709 25.028L30.734 21.0688L29.7679 20.5948C29.3439 20.4358 29.4679 20.1859 29.6149 19.5859L30.3239 16.8809L27.6171 17.476C27.5139 17.4962 27.4069 17.4765 27.3177 17.4208C27.2286 17.3651 27.1641 17.2775 27.1371 17.1759L26.786 15.9039L24.6459 18.4109C24.3459 18.8109 23.7249 18.8109 23.9159 17.8829L24.8329 12.8049L23.6049 13.4709C23.2609 13.6709 22.916 13.7039 22.722 13.3439L20.9999 10.0439L19.276 13.3439C19.084 13.7029 18.7379 13.6699 18.3939 13.4709L17.1681 12.8049L18.0829 17.8829C18.2739 18.8129 17.6579 18.8129 17.3529 18.4109L15.2111 15.9039L14.8629 17.1759C14.8359 17.2775 14.7714 17.3651 14.6823 17.4208C14.5931 17.4765 14.4861 17.4962 14.3829 17.476L11.6749 16.8809L12.3859 19.5859C12.5389 20.1859 12.658 20.4348 12.234 20.5948L11.266 21.0688L15.931 25.028C16.0251 25.1079 16.0948 25.2124 16.1324 25.33C16.1701 25.4475 16.174 25.5732 16.1439 25.6929L15.735 27.0929C17.335 26.8979 18.7799 26.7259 20.3839 26.5339L20.7399 26.84L20.6171 31.9589H20.9999Z" fill="#D90025"/>
</svg>
