<svg width="235" height="168" viewBox="0 0 235 168" fill="none" xmlns="http://www.w3.org/2000/svg">
<path d="M3.08833 19.2915H0.5V148.708H3.08833V19.2915Z" fill="#FF0000"/>
<path d="M52.4083 27.92C52.4083 25.1467 53.0083 22.68 54.2083 20.52C55.4083 18.3333 57.075 16.64 59.2083 15.44C61.3683 14.2133 63.8083 13.6 66.5283 13.6C69.8617 13.6 72.715 14.48 75.0883 16.24C77.4617 18 79.0483 20.4 79.8483 23.44H72.3283C71.7683 22.2667 70.9683 21.3733 69.9283 20.76C68.915 20.1467 67.755 19.84 66.4483 19.84C64.3417 19.84 62.635 20.5733 61.3283 22.04C60.0217 23.5067 59.3683 25.4667 59.3683 27.92C59.3683 30.3733 60.0217 32.3333 61.3283 33.8C62.635 35.2667 64.3417 36 66.4483 36C67.755 36 68.915 35.6933 69.9283 35.08C70.9683 34.4667 71.7683 33.5733 72.3283 32.4H79.8483C79.0483 35.44 77.4617 37.84 75.0883 39.6C72.715 41.3333 69.8617 42.2 66.5283 42.2C63.8083 42.2 61.3683 41.6 59.2083 40.4C57.075 39.1733 55.4083 37.48 54.2083 35.32C53.0083 33.16 52.4083 30.6933 52.4083 27.92ZM82.6771 30.8C82.6771 28.5067 83.1037 26.4933 83.9571 24.76C84.8371 23.0267 86.0237 21.6933 87.5171 20.76C89.0104 19.8267 90.6771 19.36 92.5171 19.36C94.0904 19.36 95.4637 19.68 96.6371 20.32C97.8371 20.96 98.7571 21.8 99.3971 22.84V19.68H106.237V42H99.3971V38.84C98.7304 39.88 97.7971 40.72 96.5971 41.36C95.4238 42 94.0504 42.32 92.4771 42.32C90.6638 42.32 89.0104 41.8533 87.5171 40.92C86.0237 39.96 84.8371 38.6133 83.9571 36.88C83.1037 35.12 82.6771 33.0933 82.6771 30.8ZM99.3971 30.84C99.3971 29.1333 98.9171 27.7867 97.9571 26.8C97.0238 25.8133 95.8771 25.32 94.5171 25.32C93.1571 25.32 91.9971 25.8133 91.0371 26.8C90.1038 27.76 89.6371 29.0933 89.6371 30.8C89.6371 32.5067 90.1038 33.8667 91.0371 34.88C91.9971 35.8667 93.1571 36.36 94.5171 36.36C95.8771 36.36 97.0238 35.8667 97.9571 34.88C98.9171 33.8933 99.3971 32.5467 99.3971 30.84ZM124.786 19.44C127.399 19.44 129.479 20.2933 131.026 22C132.599 23.68 133.386 26 133.386 28.96V42H126.586V29.88C126.586 28.3867 126.199 27.2267 125.426 26.4C124.652 25.5733 123.612 25.16 122.306 25.16C120.999 25.16 119.959 25.5733 119.186 26.4C118.412 27.2267 118.026 28.3867 118.026 29.88V42H111.186V19.68H118.026V22.64C118.719 21.6533 119.652 20.88 120.826 20.32C121.999 19.7333 123.319 19.44 124.786 19.44ZM136.779 30.8C136.779 28.5067 137.205 26.4933 138.059 24.76C138.939 23.0267 140.125 21.6933 141.619 20.76C143.112 19.8267 144.779 19.36 146.619 19.36C148.192 19.36 149.565 19.68 150.739 20.32C151.939 20.96 152.859 21.8 153.499 22.84V19.68H160.339V42H153.499V38.84C152.832 39.88 151.899 40.72 150.699 41.36C149.525 42 148.152 42.32 146.579 42.32C144.765 42.32 143.112 41.8533 141.619 40.92C140.125 39.96 138.939 38.6133 138.059 36.88C137.205 35.12 136.779 33.0933 136.779 30.8ZM153.499 30.84C153.499 29.1333 153.019 27.7867 152.059 26.8C151.125 25.8133 149.979 25.32 148.619 25.32C147.259 25.32 146.099 25.8133 145.139 26.8C144.205 27.76 143.739 29.0933 143.739 30.8C143.739 32.5067 144.205 33.8667 145.139 34.88C146.099 35.8667 147.259 36.36 148.619 36.36C149.979 36.36 151.125 35.8667 152.059 34.88C153.019 33.8933 153.499 32.5467 153.499 30.84ZM163.927 30.8C163.927 28.5067 164.354 26.4933 165.207 24.76C166.087 23.0267 167.274 21.6933 168.767 20.76C170.26 19.8267 171.927 19.36 173.767 19.36C175.234 19.36 176.567 19.6667 177.767 20.28C178.994 20.8933 179.954 21.72 180.647 22.76V12.4H187.487V42H180.647V38.8C180.007 39.8667 179.087 40.72 177.887 41.36C176.714 42 175.34 42.32 173.767 42.32C171.927 42.32 170.26 41.8533 168.767 40.92C167.274 39.96 166.087 38.6133 165.207 36.88C164.354 35.12 163.927 33.0933 163.927 30.8ZM180.647 30.84C180.647 29.1333 180.167 27.7867 179.207 26.8C178.274 25.8133 177.127 25.32 175.767 25.32C174.407 25.32 173.247 25.8133 172.287 26.8C171.354 27.76 170.887 29.0933 170.887 30.8C170.887 32.5067 171.354 33.8667 172.287 34.88C173.247 35.8667 174.407 36.36 175.767 36.36C177.127 36.36 178.274 35.8667 179.207 34.88C180.167 33.8933 180.647 32.5467 180.647 30.84ZM191.076 30.8C191.076 28.5067 191.502 26.4933 192.356 24.76C193.236 23.0267 194.422 21.6933 195.916 20.76C197.409 19.8267 199.076 19.36 200.916 19.36C202.489 19.36 203.862 19.68 205.036 20.32C206.236 20.96 207.156 21.8 207.796 22.84V19.68H214.636V42H207.796V38.84C207.129 39.88 206.196 40.72 204.996 41.36C203.822 42 202.449 42.32 200.876 42.32C199.062 42.32 197.409 41.8533 195.916 40.92C194.422 39.96 193.236 38.6133 192.356 36.88C191.502 35.12 191.076 33.0933 191.076 30.8ZM207.796 30.84C207.796 29.1333 207.316 27.7867 206.356 26.8C205.422 25.8133 204.276 25.32 202.916 25.32C201.556 25.32 200.396 25.8133 199.436 26.8C198.502 27.76 198.036 29.0933 198.036 30.8C198.036 32.5067 198.502 33.8667 199.436 34.88C200.396 35.8667 201.556 36.36 202.916 36.36C204.276 36.36 205.422 35.8667 206.356 34.88C207.316 33.8933 207.796 32.5467 207.796 30.84ZM79.9283 69.92L69.9683 98H61.4083L51.4483 69.92H58.7283L65.6883 91.12L72.6883 69.92H79.9283ZM86.2271 73.36C85.0271 73.36 84.0404 73.0133 83.2671 72.32C82.5204 71.6 82.1471 70.72 82.1471 69.68C82.1471 68.6133 82.5204 67.7333 83.2671 67.04C84.0404 66.32 85.0271 65.96 86.2271 65.96C87.4004 65.96 88.3604 66.32 89.1071 67.04C89.8804 67.7333 90.2671 68.6133 90.2671 69.68C90.2671 70.72 89.8804 71.6 89.1071 72.32C88.3604 73.0133 87.4004 73.36 86.2271 73.36ZM89.6271 75.68V98H82.7871V75.68H89.6271ZM103.664 98.32C101.717 98.32 99.984 97.9867 98.464 97.32C96.944 96.6533 95.744 95.7467 94.864 94.6C93.984 93.4267 93.4906 92.12 93.384 90.68H100.144C100.224 91.4533 100.584 92.08 101.224 92.56C101.864 93.04 102.651 93.28 103.584 93.28C104.437 93.28 105.091 93.12 105.544 92.8C106.024 92.4533 106.264 92.0133 106.264 91.48C106.264 90.84 105.931 90.3733 105.264 90.08C104.597 89.76 103.517 89.4133 102.024 89.04C100.424 88.6667 99.0906 88.28 98.024 87.88C96.9573 87.4533 96.0373 86.8 95.264 85.92C94.4906 85.0133 94.104 83.8 94.104 82.28C94.104 81 94.4506 79.84 95.144 78.8C95.864 77.7333 96.904 76.8933 98.264 76.28C99.6506 75.6667 101.291 75.36 103.184 75.36C105.984 75.36 108.184 76.0533 109.784 77.44C111.411 78.8267 112.344 80.6667 112.584 82.96H106.264C106.157 82.1867 105.811 81.5733 105.224 81.12C104.664 80.6667 103.917 80.44 102.984 80.44C102.184 80.44 101.571 80.6 101.144 80.92C100.717 81.2133 100.504 81.6267 100.504 82.16C100.504 82.8 100.837 83.28 101.504 83.6C102.197 83.92 103.264 84.24 104.704 84.56C106.357 84.9867 107.704 85.4133 108.744 85.84C109.784 86.24 110.691 86.9067 111.464 87.84C112.264 88.7467 112.677 89.9733 112.704 91.52C112.704 92.8267 112.331 94 111.584 95.04C110.864 96.0533 109.811 96.8533 108.424 97.44C107.064 98.0267 105.477 98.32 103.664 98.32ZM115.529 86.8C115.529 84.5067 115.955 82.4933 116.809 80.76C117.689 79.0267 118.875 77.6933 120.369 76.76C121.862 75.8267 123.529 75.36 125.369 75.36C126.942 75.36 128.315 75.68 129.489 76.32C130.689 76.96 131.609 77.8 132.249 78.84V75.68H139.089V98H132.249V94.84C131.582 95.88 130.649 96.72 129.449 97.36C128.275 98 126.902 98.32 125.329 98.32C123.515 98.32 121.862 97.8533 120.369 96.92C118.875 95.96 117.689 94.6133 116.809 92.88C115.955 91.12 115.529 89.0933 115.529 86.8ZM132.249 86.84C132.249 85.1333 131.769 83.7867 130.809 82.8C129.875 81.8133 128.729 81.32 127.369 81.32C126.009 81.32 124.849 81.8133 123.889 82.8C122.955 83.76 122.489 85.0933 122.489 86.8C122.489 88.5067 122.955 89.8667 123.889 90.88C124.849 91.8667 126.009 92.36 127.369 92.36C128.729 92.36 129.875 91.8667 130.809 90.88C131.769 89.8933 132.249 88.5467 132.249 86.84ZM74.9683 134.96C74.9683 136.587 74.595 138.08 73.8483 139.44C73.1017 140.773 71.955 141.853 70.4083 142.68C68.8617 143.507 66.9417 143.92 64.6483 143.92H60.4083V154H53.5683V125.92H64.6483C66.8883 125.92 68.7817 126.307 70.3283 127.08C71.875 127.853 73.035 128.92 73.8083 130.28C74.5817 131.64 74.9683 133.2 74.9683 134.96ZM64.1283 138.48C65.435 138.48 66.4083 138.173 67.0483 137.56C67.6883 136.947 68.0083 136.08 68.0083 134.96C68.0083 133.84 67.6883 132.973 67.0483 132.36C66.4083 131.747 65.435 131.44 64.1283 131.44H60.4083V138.48H64.1283ZM77.1693 142.8C77.1693 140.507 77.5959 138.493 78.4493 136.76C79.3293 135.027 80.5159 133.693 82.0093 132.76C83.5026 131.827 85.1693 131.36 87.0093 131.36C88.5826 131.36 89.9559 131.68 91.1293 132.32C92.3293 132.96 93.2493 133.8 93.8893 134.84V131.68H100.729V154H93.8893V150.84C93.2226 151.88 92.2893 152.72 91.0893 153.36C89.9159 154 88.5426 154.32 86.9693 154.32C85.1559 154.32 83.5026 153.853 82.0093 152.92C80.5159 151.96 79.3293 150.613 78.4493 148.88C77.5959 147.12 77.1693 145.093 77.1693 142.8ZM93.8893 142.84C93.8893 141.133 93.4093 139.787 92.4493 138.8C91.5159 137.813 90.3693 137.32 89.0093 137.32C87.6493 137.32 86.4893 137.813 85.5293 138.8C84.5959 139.76 84.1293 141.093 84.1293 142.8C84.1293 144.507 84.5959 145.867 85.5293 146.88C86.4893 147.867 87.6493 148.36 89.0093 148.36C90.3693 148.36 91.5159 147.867 92.4493 146.88C93.4093 145.893 93.8893 144.547 93.8893 142.84ZM118.118 148.2V154H114.638C112.158 154 110.224 153.4 108.838 152.2C107.451 150.973 106.758 148.987 106.758 146.24V137.36H104.038V131.68H106.758V126.24H113.598V131.68H118.078V137.36H113.598V146.32C113.598 146.987 113.758 147.467 114.078 147.76C114.398 148.053 114.931 148.2 115.678 148.2H118.118ZM135.648 131.44C138.208 131.44 140.261 132.293 141.808 134C143.354 135.68 144.128 138 144.128 140.96V154H137.328V141.88C137.328 140.387 136.941 139.227 136.168 138.4C135.394 137.573 134.354 137.16 133.048 137.16C131.741 137.16 130.701 137.573 129.928 138.4C129.154 139.227 128.768 140.387 128.768 141.88V154H121.928V124.4H128.768V134.68C129.461 133.693 130.408 132.907 131.608 132.32C132.808 131.733 134.154 131.44 135.648 131.44ZM180.921 131.68L174.881 154H167.321L163.801 139.52L160.161 154H152.641L146.561 131.68H153.401L156.561 147.64L160.321 131.68H167.561L171.361 147.56L174.481 131.68H180.921ZM182.169 142.8C182.169 140.507 182.596 138.493 183.449 136.76C184.329 135.027 185.516 133.693 187.009 132.76C188.503 131.827 190.169 131.36 192.009 131.36C193.583 131.36 194.956 131.68 196.129 132.32C197.329 132.96 198.249 133.8 198.889 134.84V131.68H205.729V154H198.889V150.84C198.223 151.88 197.289 152.72 196.089 153.36C194.916 154 193.543 154.32 191.969 154.32C190.156 154.32 188.503 153.853 187.009 152.92C185.516 151.96 184.329 150.613 183.449 148.88C182.596 147.12 182.169 145.093 182.169 142.8ZM198.889 142.84C198.889 141.133 198.409 139.787 197.449 138.8C196.516 137.813 195.369 137.32 194.009 137.32C192.649 137.32 191.489 137.813 190.529 138.8C189.596 139.76 189.129 141.093 189.129 142.8C189.129 144.507 189.596 145.867 190.529 146.88C191.489 147.867 192.649 148.36 194.009 148.36C195.369 148.36 196.516 147.867 197.449 146.88C198.409 145.893 198.889 144.547 198.889 142.84ZM233.478 131.68L219.478 164.6H212.118L217.238 153.24L208.158 131.68H215.798L220.958 145.64L226.078 131.68H233.478Z" fill="white"/>
</svg>
