<svg xmlns="http://www.w3.org/2000/svg" width="542.856" height="692.339" viewBox="0 0 542.856 692.339"><defs><style>.a{fill:#fff;}.a,.b,.c,.d,.e{stroke:#303030;}.b{fill:#f5f5f5;}.c{fill:none;}.d{fill:#d90025;}.e{fill:#303030;}</style></defs><g transform="translate(-146.269 -34.096)"><path class="a" d="M357.636,161.231c-4.846,21.057,44.812,23.763,65.272,23.992a80.226,80.226,0,0,0,16.877-1.6c17.3-3.511,55.178-12.725,49.866-25.253-6.854-16.166-27.441-4.894-27.441-4.894s2.583-12.2-32.449-20.265-34.892,18.8-34.892,18.8S363.723,134.78,357.636,161.231Z" transform="translate(191.474 58.503)"></path><path class="b" d="M119.656,107.957l-.806,501.268a22.685,22.685,0,0,0,22.686,22.722H525.769a22.686,22.686,0,0,0,22.685-22.537l3.287-502.087a22.686,22.686,0,0,0-22.733-22.834l-386.715.819A22.684,22.684,0,0,0,119.656,107.957Z" transform="translate(47.81 30.059)"></path><path class="a" d="M129.955,98.345l-.811,504.863h396.7L529.157,97.5Z" transform="translate(54.011 37.898)"></path><path class="a" d="M129.955,98.345l-.811,30.661H529.43L529.157,97.5Z" transform="translate(54.011 37.898)"></path><line class="c" transform="translate(208.238 143.086)"></line><line class="c" x2="2.538" transform="translate(203.198 159.501)"></line><path class="a" d="M153.98,132.445l-.736,10.664H294.966l2.892-9.419Z" transform="translate(68.531 58.952)"></path><path class="a" d="M248.387,377.313l-.737,10.665H389.374l2.892-9.42Z" transform="translate(125.409 206.479)"></path><path class="a" d="M153.513,148.541l.11,8.133H369.4l2.205-7.184Z" transform="translate(68.693 68.649)"></path><path class="a" d="M246.056,270.759l.506,54.563H401.5l-1.193-54.563Z" transform="translate(124.448 142.283)"></path><path class="a" d="M246.8,316.686H402.426l-1.466,8.882H246.279Z" transform="translate(124.583 169.953)"></path><path class="a" d="M247.734,327.773H403.36l-1.466,8.882H247.214Z" transform="translate(125.146 176.632)"></path><path class="a" d="M153.4,162.556H309.028l-1.466,8.882H152.882Z" transform="translate(68.313 77.093)"></path><path class="a" d="M154.336,176.414H309.962L308.5,185.3H153.816Z" transform="translate(68.876 85.442)"></path><path class="a" d="M154.336,189.618H309.962L308.5,198.5H153.816Z" transform="translate(68.876 93.397)"></path><path class="a" d="M246.793,338.86H402.419l-1.466,8.882H246.273Z" transform="translate(124.579 183.312)"></path><g transform="translate(236.168 406.003)"><path class="a" d="M258.4,266.367l-.229,87.959H162.226l3.509-87.959Z" transform="translate(-162.226 -266.367)"></path><g transform="translate(14.648 15.672)"><g transform="translate(0 49.699)"><path class="a" d="M171.367,312.439h4.4l.047-2.116-2.64,0,.072-3.166-1.755,0Z" transform="translate(-171.367 -307.16)"></path></g><g transform="translate(10.683 52.81)"><path class="a" d="M178.078,309.147l6.319-.006-.04,2.13h-6.323Zm12.676-.013,6.4-.006-.034,2.142h-6.4Zm12.831-.013,6.474-.006-.026,2.155h-6.477Zm12.988-.013,6.553-.006-.018,2.168H216.55Z" transform="translate(-178.033 -309.102)"></path></g><g transform="translate(62.354 49.535)"><path class="a" d="M210.278,312.5h4.664l.031-5.443-1.865,0-.02,3.261-2.795,0Z" transform="translate(-210.278 -307.058)"></path></g><g transform="translate(65.239 14.064)"><path class="a" d="M212.131,302.6l1.857-.019-.05,8.887-1.86.013Zm.107-17.637,1.849-.035-.05,8.806-1.852.027Z" transform="translate(-212.078 -284.923)"></path></g><g transform="translate(62.715)"><path class="a" d="M213.242,281.49l1.844-.042.03-5.3-4.6.117-.015,2.114,2.758-.068Z" transform="translate(-210.503 -276.147)"></path></g><g transform="translate(11.739 0.283)"><path class="a" d="M178.735,277.454l6.237-.159-.04,2.07-6.24.152Zm12.509-.319,6.312-.16-.032,2.083-6.315.154Zm12.66-.322,6.387-.162-.026,2.094-6.391.157Zm12.812-.325,6.464-.165-.018,2.107-6.468.159Z" transform="translate(-178.692 -276.323)"></path></g><g transform="translate(1.123 1.572)"><path class="a" d="M172.068,282.379l1.736-.04.07-3.089,2.607-.064.046-2.059-4.339.11Z" transform="translate(-172.068 -277.128)"></path></g><g transform="translate(0.326 15.288)"><path class="a" d="M171.77,302.832l1.747-.018-.2,8.621-1.75.011Zm.4-17.111,1.739-.034-.2,8.543-1.742.026Z" transform="translate(-171.57 -285.687)"></path></g></g></g><g transform="translate(236.168 303.41)"><path class="a" d="M258.4,202.345l-.229,87.959H162.226l3.509-87.959Z" transform="translate(-162.226 -202.345)"></path><g transform="translate(14.648 15.672)"><g transform="translate(0 49.699)"><path class="a" d="M171.367,248.418h4.4l.047-2.116-2.64,0,.072-3.166-1.755,0Z" transform="translate(-171.367 -243.139)"></path></g><g transform="translate(10.683 52.809)"><path class="a" d="M178.078,245.126l6.319-.006-.04,2.128h-6.323Zm12.676-.013,6.4-.006-.034,2.141h-6.4Zm12.831-.013,6.474-.006-.026,2.154h-6.477Zm12.988-.014,6.553-.006-.018,2.168H216.55Z" transform="translate(-178.033 -245.08)"></path></g><g transform="translate(62.354 49.535)"><path class="a" d="M210.278,248.479h4.664l.031-5.443-1.865,0-.02,3.261-2.795,0Z" transform="translate(-210.278 -243.037)"></path></g><g transform="translate(65.239 14.065)"><path class="a" d="M212.131,238.573l1.857-.019-.05,8.887-1.86.013Zm.107-17.635,1.849-.035-.05,8.8-1.852.027Z" transform="translate(-212.078 -220.902)"></path></g><g transform="translate(62.715)"><path class="a" d="M213.242,217.469l1.844-.042.03-5.3-4.6.117-.015,2.114,2.758-.067Z" transform="translate(-210.503 -212.125)"></path></g><g transform="translate(11.739 0.282)"><path class="a" d="M178.735,213.432l6.237-.159-.04,2.072-6.24.152Zm12.509-.317,6.312-.162-.032,2.083-6.315.155Zm12.66-.322,6.387-.163-.026,2.1-6.391.155Zm12.812-.327,6.464-.165-.018,2.109-6.468.159Z" transform="translate(-178.692 -212.301)"></path></g><g transform="translate(1.123 1.572)"><path class="a" d="M172.068,218.357l1.736-.04.07-3.089,2.607-.064.046-2.059-4.339.11Z" transform="translate(-172.068 -213.106)"></path></g><g transform="translate(0.326 15.287)"><path class="a" d="M171.77,238.812l1.747-.019-.2,8.621-1.75.013Zm.4-17.113,1.739-.034-.2,8.544-1.742.026Z" transform="translate(-171.57 -221.665)"></path></g></g></g><path class="d" d="M241.024,197.553a123.1,123.1,0,0,0-9.6-7.935c-4.855,26.827-20.206,58.574-26.314,57.159-5.33-1.234-13.432-9.217-20.871-25.08-3.5,2.764-6.939,5.8-10.062,8.634-1.045,21.911,23.459,42.232,31.229,44.031C213.52,276.242,247.309,226.14,241.024,197.553Z" transform="translate(81.121 93.397)"></path><path class="d" d="M241.024,260.032a123.118,123.118,0,0,0-9.6-7.935c-4.855,26.829-20.206,58.574-26.314,57.159-5.33-1.234-13.432-9.216-20.871-25.08-3.5,2.766-6.939,5.8-10.062,8.634-1.045,21.911,23.459,42.232,31.229,44.033C213.52,338.721,247.309,288.619,241.024,260.032Z" transform="translate(81.121 131.039)"></path><g transform="translate(236.168 509.984)"><path class="a" d="M164.777,331.254l-2.551,87.959h95.945l-.728-87.959Z" transform="translate(-162.226 -331.254)"></path><g transform="translate(14.826 15.672)"><g transform="translate(62.621 49.699)"><path class="a" d="M214.953,377.327h-4.4l.02-2.116,2.64,0,.028-3.166,1.755,0Z" transform="translate(-210.555 -372.048)"></path></g><g transform="translate(11.261 52.81)"><path class="a" d="M223.579,376.157h-6.323l.027-2.128,6.319.006Zm-12.685,0h-6.4l.034-2.143,6.4.008Zm-12.837,0H191.58l.042-2.155,6.474.008Zm-12.994,0h-6.557l.05-2.168,6.554.006Z" transform="translate(-178.505 -373.989)"></path></g><g transform="translate(0 49.535)"><path class="a" d="M176.142,377.388h-4.664l.141-5.443,1.865,0-.083,3.261,2.795,0Z" transform="translate(-171.478 -371.945)"></path></g><g transform="translate(0.374 14.065)"><path class="a" d="M173.571,376.362l-1.86-.013.231-8.887,1.856.019Zm.452-17.72-1.852-.027.229-8.8,1.848.035Z" transform="translate(-171.711 -349.811)"></path></g><g transform="translate(1.291)"><path class="a" d="M174.126,346.378l-1.843-.042.138-5.3,4.593.117-.052,2.114-2.755-.068Z" transform="translate(-172.283 -341.034)"></path></g><g transform="translate(12.471 0.282)"><path class="a" d="M223.7,344.407l-6.234-.152.026-2.072,6.232.159Zm-12.506-.306-6.311-.155.034-2.083,6.306.162Zm-12.656-.311-6.386-.155.04-2.1,6.383.162Zm-12.81-.314-6.463-.157.05-2.109,6.458.165Z" transform="translate(-179.26 -341.21)"></path></g><g transform="translate(63.106 1.572)"><path class="a" d="M215.169,347.266l-1.734-.04.027-3.089-2.6-.064.019-2.059,4.335.11Z" transform="translate(-210.857 -342.015)"></path></g><g transform="translate(65.383 15.288)"><path class="a" d="M214.029,376.334l-1.75-.011.075-8.621,1.747.018Zm.143-17.19-1.742-.026.074-8.544,1.739.034Z" transform="translate(-212.279 -350.574)"></path></g></g></g><path class="a" d="M247.741,361.821l.633,15.227H407.913l.288-15.227Z" transform="translate(125.464 197.146)"></path><g transform="translate(453.066 191.397)"><path class="a" d="M304.06,132.445l-6.483,105.386,109.612-.049-.161-105.337Z" transform="translate(-297.577 -132.445)"></path><g transform="translate(11.225 7.489)"><g transform="translate(0 49.248)"><path class="a" d="M387.824,217.422c.088-1.146.173-2.292.181-3.458.188-26.322-18.4-46.638-41.06-46.1-22.18.526-40.921,20.927-42.315,46.238-.062,1.12-.051,2.223-.038,3.324Z" transform="translate(-304.582 -167.851)"></path></g><g transform="translate(20.238)"><path class="a" d="M363.568,159.908c.232-13.259-9.983-23.362-22.677-22.765-12.539.591-23.066,11.443-23.654,24.428-.6,13.19,9.248,23.786,22.141,23.471C352.434,184.726,363.332,173.382,363.568,159.908Z" transform="translate(-317.211 -137.118)"></path></g></g></g><g transform="translate(364.434 355.529)"><path class="a" d="M403.87,247.163H246.81c-3.381,0-5.3-2.766-4.259-6.147h0a9.071,9.071,0,0,1,8.035-6.147H407.644c3.381,0,5.3,2.766,4.261,6.147h0A9.072,9.072,0,0,1,403.87,247.163Z" transform="translate(-242.268 -234.869)"></path><path class="a" d="M340.817,234.869H250.585a9.071,9.071,0,0,0-8.035,6.147c-1.038,3.381.88,6.147,4.259,6.147h81.912Z" transform="translate(-242.268 -234.869)"></path><g transform="translate(2.952 23.454)"><path class="a" d="M405.71,261.8H248.652c-3.381,0-5.3-2.768-4.259-6.147h0a9.071,9.071,0,0,1,8.035-6.149H409.486c3.381,0,5.3,2.767,4.259,6.149h0A9.072,9.072,0,0,1,405.71,261.8Z" transform="translate(-244.11 -249.505)"></path><path class="a" d="M365.834,249.505H252.427a9.071,9.071,0,0,0-8.035,6.149c-1.038,3.38.878,6.147,4.259,6.147H354.335Z" transform="translate(-244.11 -249.505)"></path></g></g><path class="b" d="M203.56,68.4l-5.542,68.111H358.031L357.81,68.4Z" transform="translate(95.507 20.369)"></path><path class="a" d="M200.343,93.082l-2.324,28.566H358.031l-.093-28.566Z" transform="translate(95.507 35.236)"></path><path class="a" d="M279.5,54.105H238.96a7.8,7.8,0,0,0-7.785,7.343l-1.086,18.52a7.8,7.8,0,0,0,7.786,8.256h41.672a7.8,7.8,0,0,0,7.8-7.817L287.3,61.885A7.8,7.8,0,0,0,279.5,54.105ZM245.766,72.982h0a7.8,7.8,0,0,1,7.785-7.343h10.32a7.8,7.8,0,0,1,7.8,7.78h0a7.8,7.8,0,0,1-7.8,7.817h-10.32A7.8,7.8,0,0,1,245.766,72.982Z" transform="translate(114.82 11.754)"></path><path class="d" d="M241.024,329.191a123.1,123.1,0,0,0-9.6-7.935c-4.855,26.827-20.206,58.574-26.314,57.159-5.33-1.234-13.432-9.217-20.871-25.08-3.5,2.764-6.939,5.8-10.062,8.634C173.128,383.879,197.632,404.2,205.4,406,213.52,407.88,247.309,357.778,241.024,329.191Z" transform="translate(81.121 172.706)"></path><g transform="translate(541.983 408.565)"><g transform="translate(0 26.896)"><g transform="translate(98.911)"><path class="a" d="M414.788,291.649l1.074,13.587,13.333.577-5.372-21.064Z" transform="translate(-414.788 -284.75)"></path></g><g transform="translate(47.462 3.324)"><path class="a" d="M396.636,300.926c-.213-.635-1.151-2.747-4.875-5.625-3.341-2.582-11.863-5.916-8.168-8.477,4.567.365,9.972.247,9.972.247,2.742.492,5.953,3.905,7.551,6.41l3.985,8.294s-1.835,4.07-1.886,4.279l-1.909-.364A21.676,21.676,0,0,0,396.636,300.926Z" transform="translate(-382.683 -286.824)"></path><path class="a" d="M394.468,294.658a3.327,3.327,0,0,0-.119-.676c.591.115,1.183.2,1.771.256,1.883,1.149,3.8,2.239,5.694,3.367-.8.993-1.931,2.389-1.993,2.5l-13.874-4.924s-.152-1.9,2.928-1.835A14.638,14.638,0,0,1,394.468,294.658Z" transform="translate(-380.717 -282.894)"></path></g><path class="a" d="M412.5,324.821l-21.4-19.885,7.386-11.045,29.271,13.824-12.743,22.395Z" transform="translate(-330.149 -279.242)"></path><path class="a" d="M428.934,292.586c30.514-6.327,25.2,94.713,25.2,94.713H405.86s-.691-17.59-2.455-39.9C401.908,328.486,412.52,307.125,428.934,292.586Z" transform="translate(-322.82 -280.2)"></path><g transform="translate(69.665 267.304)"><path class="d" d="M417.093,455.888s-4.755,4.41-15.6,7.171c-2.386.607-4.96-.205-4.96,3.732h13.155l10.942-1.893v1.893h5.908s1.646-9.665-1.8-10.9Z" transform="translate(-396.538 -448.946)"></path><path class="a" d="M410.03,451.556l-.665,6.942h0a6.683,6.683,0,0,0,7.238.242l.407-.242,1.226-6.942Z" transform="translate(-388.81 -451.556)"></path></g><g transform="translate(5.134 33.249)"><path class="a" d="M372.927,316.291c-.665-.066-2.933-.508-6.57-3.495-3.264-2.679-8.419-10.241-10.089-6.067,1.377,4.37,2.469,9.665,2.469,9.665,1.091,2.562,5.136,4.931,7.935,5.928l8.974,2.032s3.557-2.7,3.75-2.795l-.78-1.779A21.668,21.668,0,0,1,372.927,316.291Z" transform="translate(-356.268 -305.498)"></path><path class="a" d="M366.23,315.6a3.451,3.451,0,0,1-.686.037c.244.55.455,1.107.646,1.667,1.54,1.578,3.032,3.2,4.554,4.8.787-1.008,1.9-2.418,1.993-2.5l-7.9-12.422s-1.881.274-1.135,3.263A14.644,14.644,0,0,0,366.23,315.6Z" transform="translate(-351.894 -304.484)"></path></g><g transform="translate(116.113 257.591)"><path class="d" d="M446.078,449.826s-4.755,4.41-15.6,7.171c-2.386.609-4.96-.2-4.96,3.734h13.156l10.94-1.893v1.893h5.91s1.646-9.665-1.806-10.9Z" transform="translate(-425.523 -442.886)"></path><path class="a" d="M439.015,445.5l-.665,6.94h0a6.687,6.687,0,0,0,7.24.244l.405-.244,1.227-6.94Z" transform="translate(-417.795 -445.495)"></path></g><path class="b" d="M447.381,351.583s-3.865,20.459-.405,62.822a77.339,77.339,0,0,0,5.035,21.827c9.3,23.826,10.573,67.8,10.573,67.8H451.948L414.466,396.855Z" transform="translate(-316.071 -244.484)"></path><path class="a" d="M457.923,319.782s-8.343,31.09-30.968,33.952S367.1,327.965,367.1,327.965l4.091-8.182,39.273,11a13.309,13.309,0,0,0,15.288-6.466l11.831-21.8Z" transform="translate(-344.606 -274.044)"></path><path class="b" d="M404.884,351.583,411.9,513.642h9.511s10.666-37.78,9.865-67.57a68.957,68.957,0,0,1,4.87-27.59c14.509-36.073,17-66.9,17-66.9Z" transform="translate(-321.844 -244.484)"></path><path class="a" d="M353.064,313.224l34.157,25.709L426.287,308.4,394.38,284.75Z" transform="translate(-353.064 -284.75)"></path><path class="a" d="M390,328.163a24.439,24.439,0,0,1,2.069-9.025L371.2,313.292l-4.091,8.181a197.582,197.582,0,0,0,23.851,15.284A30.229,30.229,0,0,1,390,328.163Z" transform="translate(-344.606 -267.553)"></path><g transform="translate(15.24 35.944)"><path class="a" d="M363.3,319.669l7.354,1.663a24.329,24.329,0,0,1,2.684-4.985,22.069,22.069,0,0,1-4.211-2.806c-.665-.066-2.926-.508-6.552-3.481a30.087,30.087,0,0,1,.827,8.1C363.383,318.671,363.349,319.173,363.3,319.669Z" transform="translate(-362.575 -305.444)"></path><path class="a" d="M372.259,318.849l-7.421-11.669s-1.881.274-1.135,3.263a14.644,14.644,0,0,0,2.527,5.16,3.451,3.451,0,0,1-.686.037c.244.55.455,1.107.646,1.667,1.482,1.519,2.92,3.08,4.381,4.617A24.26,24.26,0,0,1,372.259,318.849Z" transform="translate(-362.001 -307.18)"></path></g><g transform="translate(52.963 10.736)"><path class="a" d="M390.012,291.449c-.087,0-.17.013-.256.016a10.661,10.661,0,0,1,2.889,3.916,22.524,22.524,0,0,1,2.445,2.13c.088-.758.221-1.5.375-2.221A25.223,25.223,0,0,1,390.012,291.449Z" transform="translate(-383.922 -291.449)"></path><path class="a" d="M393.539,292.492a14.458,14.458,0,0,0-4.5-.865c-3.08-.061-2.926,1.835-2.926,1.835l11.166,3.965c.088-.766.216-1.511.369-2.245A24.922,24.922,0,0,1,393.539,292.492Z" transform="translate(-386.115 -291.343)"></path></g><path class="a" d="M414.788,301.247v-6.68l11.152-4.636L430,295.069Z" transform="translate(-315.877 -281.628)"></path></g><path class="a" d="M414.1,304.565c-1.868.146-3.626.026-4.615-.683-6.293-7.977-2.665-31.7-2.665-31.7l19.861,1.393,2.288,15.389a13.056,13.056,0,0,1-3.719,11.187h0A20.936,20.936,0,0,1,414.1,304.565Z" transform="translate(-321.304 -265.426)"></path><path class="e" d="M419.735,277.506a41.941,41.941,0,0,1-13.272,1.433c-6.932-.476-3.388-8.443-3.388-8.443s5.283,1.755,14.089-.532c5.942-1.545,7.44-2.891,11.535-1.245,5.562,2.239,5.317,11.886,5.317,11.886l-.732,20.433-1.111,1.42s-1.534-13.238-1.973-17.31c-1.338-1.732-2.57-1.6-3.471-1.034a3.063,3.063,0,0,0-1.316,2.939l2.253,20.888s-12.684,7.17-16.182,6.5-2.905-16.4-2.905-16.4a6.252,6.252,0,0,1,7.11.945c3.359,3.034,6.618-.849,6.618-.849Z" transform="translate(-323.48 -267.965)"></path><path class="a" d="M419.592,277.6c-1.508.037-2.788,1.623-2.862,3.543s1.091,3.444,2.6,3.407,2.79-1.623,2.862-3.542S421.1,277.563,419.592,277.6Z" transform="translate(-314.709 -262.161)"></path></g><path class="a" d="M478.072,85.215H320.808s-8.53-10.789,0-18.049c4.707-4.008,10.264-3.593,14.3-2.415a4.709,4.709,0,0,0,5.831-3.687c.957-4.434,3.9-10.24,12.368-13.669,8.328-3.373,13.6,1.779,16.645,7.072a2.364,2.364,0,0,0,4.277-.436C376.871,45.674,386.071,34.6,416.3,34.6c38.45,0,34.178,20.44,30.74,28.934a1.96,1.96,0,0,0,2.223,2.671c5.931-1.269,16.94-2.912,21.875.965C478.072,72.608,478.072,85.215,478.072,85.215Z" transform="translate(167.201)"></path><g transform="translate(462.185 376.308)"><path class="a" d="M365.313,340.288l16.715,10.656,7.052-14.692-21.6-24.751Z" transform="translate(-265.887 -209.479)"></path><path class="a" d="M310.263,270.442l20.463,53.471,13.068-9.724-29.2-49.224Z" transform="translate(-299.053 -237.515)"></path><path class="a" d="M313.29,262.609a8.436,8.436,0,0,1,3.013,5.213l2.506,7.463-.795,1.405-3.537,4.072a5.378,5.378,0,0,0-1.4-2.793l-5.565-6.232s-9.134-10.65-.611-14.262c-5-9.894-1.42-9.639-1.42-9.639l4.477,8.477Z" transform="translate(-303.268 -247.836)"></path><path class="a" d="M308.857,261.923s1.843-1.737.2-5.863.843-3.84.843-3.84,6.831,16.089,4.638,17.921S308.857,261.923,308.857,261.923Z" transform="translate(-300.117 -245.197)"></path><path class="b" d="M361.223,317.554l-6.128.479-20.819-24.269-11.243,12.8A339.956,339.956,0,0,0,348.442,346.2c.859,4.1,5.331,45.353,5.331,45.353h36.1s-5.748-30.271,4.408-47.116S361.223,317.554,361.223,317.554Z" transform="translate(-291.36 -220.165)"></path><path class="a" d="M370.284,408.672s-.191,84.088-.191,83.648-5.45,0-5.45,0-8.006-43.982-9.777-63.814,0-21.156,0-21.156Z" transform="translate(-272.655 -151.732)"></path><path class="a" d="M359.348,408.672s-.192,84.088-.192,83.648-5.45,0-5.45,0-8-43.982-9.777-63.814,0-21.156,0-21.156Z" transform="translate(-279.245 -151.732)"></path><g transform="translate(61.09 55.752)"><path class="a" d="M349.25,282.627l21.909,7.669L369,306.65c-.03.232-.093.454-.136.683-.421.075-.841.154-1.26.256-.069.018-.135.04-.2.058s-.133.024-.2.042c-5.054,1.242-8.634,5.418-10.241,10.253a25.9,25.9,0,0,1-9.483-.122c-2.144-.441-4.085-1.117-4.98-2.147C337.872,305.586,349.25,282.627,349.25,282.627Z" transform="translate(-341.39 -282.627)"></path></g><path class="e" d="M346.886,299.025a14.419,14.419,0,0,1,.45,12.592c-2.979,6.3-2.716,13.377-.732,17.262,1.351,2.646,4.888,5.29,8.024,7.245a12.39,12.39,0,0,1,5.817,9.376c.487,5.32,1,11.85,5.551,13.419,13.222,4.556,18.071,4.114,19.834-6.905a22.4,22.4,0,0,0-1.141-10.8,19.31,19.31,0,0,1,.409-14.47c1.322-3.021,2.5-6.346,2.5-8.639,0-2.5-2.287-6.009-4.689-9.006a18.517,18.517,0,0,1-3.892-13.273c.425-4.771-.242-10.866-5.081-15-9.035-7.71-29.09,4.424-29.09,4.424S342.915,291.1,346.886,299.025Z" transform="translate(-278.503 -229.502)"></path><path class="a" d="M389.578,326.946l8.027,8.31c5.333,5.522,6.984,13.208.575,17.432l-26.233,20.835,2.412,4.514a11.007,11.007,0,0,1-.961,11.868l-2.772,3.63-6.137-21.065,19.02-23.747a4.559,4.559,0,0,0-.982-7.086h0Z" transform="translate(-266.384 -200.173)"></path><path class="d" d="M344.2,354.79s-5.29,13.719-5.29,27.612c0,7.634,6.612,65.208,6.612,65.208H379.9c-2.328-42.52,10.56-47.733,10.56-66.112,0-12.964-10.153-26.708-10.153-26.708Z" transform="translate(-281.791 -183.398)"></path><path class="d" d="M373.852,456.383s3,2.362,2.453,5.373-1.332,10.062-1.332,10.062h-3.09l.1-6.577c-.01-.429-6.628,6.577-7.748,6.577h-16.35s-1.086-4.436,8.516-5.862S373.852,456.383,373.852,456.383Z" transform="translate(-276.411 -122.191)"></path><path class="d" d="M362.955,456.383s3,2.362,2.455,5.373-1.332,10.062-1.332,10.062h-3.09l.095-6.577c-.008-.429-6.626,6.577-7.746,6.577H336.985s-1.085-4.436,8.516-5.862S362.955,456.383,362.955,456.383Z" transform="translate(-282.976 -122.191)"></path><path class="a" d="M365.313,408.175" transform="translate(-265.887 -151.235)"></path></g><g transform="translate(146.869 412.879)"><path class="a" d="M140.463,308.223l13.831,26.052-15.241-.735-1.07-26.157Z" transform="translate(-87.532 -248.53)"></path><path class="a" d="M127.791,300.711l12.777-.018,5.294,82.581h-22.9Z" transform="translate(-96.58 -252.562)"></path><g transform="translate(5.105 287.415)"><path class="d" d="M112.335,451.981s-3.157,2.482-2.578,5.646,1.4,10.573,1.4,10.573H114.4l-.1-6.91c.01-.452,6.963,6.91,8.141,6.91h17.182s1.141-4.66-8.948-6.158S112.335,451.981,112.335,451.981Z" transform="translate(-109.686 -448.829)"></path><g transform="translate(2.143)"><path class="a" d="M118.976,450.014l2.328,6.061a7.79,7.79,0,0,0,3.173,4.027,30.513,30.513,0,0,0,8.022,3.642c-4.67,3.985-12.1-.176-16.348-3.12A10.391,10.391,0,0,1,112,454.605l-.974-4.591Z" transform="translate(-111.023 -450.014)"></path></g></g><g transform="translate(37.834 287.415)"><path class="d" d="M132.759,451.981s-3.157,2.482-2.578,5.646,1.4,10.573,1.4,10.573h3.247l-.1-6.91c.01-.452,6.964,6.91,8.141,6.91h17.182s1.141-4.66-8.948-6.158S132.759,451.981,132.759,451.981Z" transform="translate(-130.11 -448.829)"></path><g transform="translate(2.143)"><path class="a" d="M139.4,450.014l2.33,6.061A7.779,7.779,0,0,0,144.9,460.1a30.512,30.512,0,0,0,8.022,3.642c-4.67,3.985-12.1-.176-16.348-3.12a10.391,10.391,0,0,1-4.154-6.019l-.974-4.591Z" transform="translate(-131.447 -450.014)"></path></g></g><path class="a" d="M119.916,352.226s-2.147,12.342,10.2,73.009c-9.991,31.617,6.009,84.518,6.009,84.518h11.664l7.94-157.527Z" transform="translate(-98.503 -221.514)"></path><path class="b" d="M133.074,300.7,137.218,400.9l13.73-5.878s-6.186-18.808-5.6-44.938c-2.1-18.9,8.621-8.942-4.513-45.323C135.946,300.685,133.074,300.7,133.074,300.7Z" transform="translate(-90.49 -252.555)"></path><path class="a" d="M139.976,299.613l-1.609,8.45a5.375,5.375,0,0,1-8.136,3.549l-5.636-3.533,10.062-22.742Z" transform="translate(-95.598 -261.814)"></path><path class="a" d="M115.774,352.226s-15.283,12.342-2.939,73.009c-9.993,31.617-1.176,84.518-1.176,84.518h10.471l29.455-157.527Z" transform="translate(-105.585 -221.514)"></path><path class="b" d="M137.711,295.405s-12.9,7.25-16.909,13.722c-3.82,6.169-5.142,20.21-5.511,32.71-.5,17.164-8.791,62.255-8.791,62.255h34.578l.862-98.16Z" transform="translate(-106.5 -255.747)"></path><path class="e" d="M153.248,283.116c-7.822-1.982-15.344,6.037-15.344,6.037l-5.884,31.689L122.971,306.9s-.516-18.949,8.23-31.5c6.264-7.6,18.286-5.418,24.364,1.973,2.955,3.594,3.572,8.556,3.287,13.123-.385,6.131-2.122,41.32-2.122,41.32l-17.917-13.272a83.34,83.34,0,0,1,2.144-10.086C143.908,297.258,158.5,284.448,153.248,283.116Z" transform="translate(-96.58 -270.657)"></path><path class="a" d="M131.274,281.947c1.155-.47,2.65.311,3.338,1.742s.309,2.971-.846,3.441-2.65-.311-3.34-1.742S130.118,282.417,131.274,281.947Z" transform="translate(-92.292 -263.938)"></path><g transform="translate(38.105 9.436)"><path class="a" d="M139.548,306.4a6.234,6.234,0,0,0,3.825.5c6.8-4.929,9.259-24.622,9.259-24.622l-5.386-5.722L136.518,278.9l-5.285,11.729a10.788,10.788,0,0,0,.439,9.737h0A17.322,17.322,0,0,0,139.548,306.4Z" transform="translate(-130.279 -276.546)"></path></g><path class="e" d="M149.748,280.786c-.558,5.956-17.135,6.445-17.135,6.445l-.864-8.064,9.665-5.32,7.65,4.6A5.079,5.079,0,0,1,149.748,280.786Z" transform="translate(-91.288 -268.736)"></path><path class="e" d="M142.789,279.266c-.551,2.218,1.694,6.08,1.694,6.08l1.319-2.383-.035-2.062-1.3-1.609S143.338,277.05,142.789,279.266Z" transform="translate(-84.689 -266.06)"></path><path class="b" d="M121.488,304c-16.731,1.953-8.828,45.118-5.234,62.84a7.5,7.5,0,0,0,9.589,5.686c14.557-4.591,35.827-23.657,35.827-23.657l-3.37-4.247-28.255,6.6S140.884,301.734,121.488,304Z" transform="translate(-103.658 -250.617)"></path><path class="a" d="M140.577,323.5l-5.464,33.817a1.613,1.613,0,0,0,1.591,1.868h21.632a1.61,1.61,0,0,0,1.59-1.359l5.367-33.819a1.609,1.609,0,0,0-1.59-1.862H142.167A1.61,1.61,0,0,0,140.577,323.5Z" transform="translate(-89.274 -239.635)"></path><g transform="translate(67.686 88.059)"><path class="a" d="M156.364,336.389a14.8,14.8,0,0,0-.377-4.392c-.516-3.2-.381-8.21-3.647-5.713a16.439,16.439,0,0,0-3.445,7.992c-.63,2.272.761,5.429,2.061,7.142l2.247,4.894S157.079,341.8,156.364,336.389Z" transform="translate(-148.738 -325.609)"></path></g><path class="a" d="M144.666,330.968a1.651,1.651,0,1,0,1.651-1.651A1.65,1.65,0,0,0,144.666,330.968Z" transform="translate(-83.506 -235.316)"></path></g></g></svg>